<?xml version="1.0" encoding="UTF-8" standalone="no"?>
<!DOCTYPE svg PUBLIC "-//W3C//DTD SVG 1.1//EN" "http://www.w3.org/Graphics/SVG/1.1/DTD/svg11.dtd">
<svg width="100%" height="100%" viewBox="0 0 1031 263" version="1.1" xmlns="http://www.w3.org/2000/svg" xmlns:xlink="http://www.w3.org/1999/xlink" xml:space="preserve" xmlns:serif="http://www.serif.com/" style="fill-rule:evenodd;clip-rule:evenodd;stroke-linejoin:round;stroke-miterlimit:2;">
    <g id="Artboard1" transform="matrix(0.865414,0,0,0.312009,0,0)">
        <rect x="0" y="0" width="1190.55" height="841.89" style="fill:none;"/>
        <g id="path2" transform="matrix(1.15552,0,0,3.20503,-91.0285,-922.126)">
            <path d="M414.115,332.975L445.517,332.975L445.517,465.382L414.115,465.382L414.115,332.975ZM516.728,332.975L541.304,332.975L600.693,465.382L569.064,465.382L557.384,439.355L501.407,439.355L489.954,465.382L458.477,465.382L516.728,332.975ZM529.13,376.353L511.95,415.394L546.651,415.394L529.13,376.353ZM696.063,344.887L676.494,364.373C666.14,358.864 658.669,356.11 654.118,356.11C650.591,356.11 647.558,357.315 645.016,359.691C642.476,362.066 641.224,364.889 641.224,368.16C641.224,374.667 647.747,380.313 660.793,385.132C670.35,388.851 677.593,392.224 682.524,395.219C687.453,398.214 691.588,402.346 694.925,407.682C698.262,412.984 699.931,418.733 699.931,424.93C699.931,436.325 694.849,446.206 684.723,454.606C674.597,463.041 662.613,467.241 648.809,467.241C633.639,467.241 618.697,460.769 603.907,447.824L624.575,425.928C633.905,434.604 642.59,438.942 650.743,438.942C654.536,438.942 658.176,437.427 661.665,434.397C665.192,431.402 666.937,428.235 666.937,424.895C666.937,418.079 658.897,411.951 642.817,406.58C633.639,403.482 627.116,400.59 623.21,397.939C619.304,395.288 616.004,391.398 613.35,386.337C610.695,381.242 609.368,376.078 609.368,370.742C609.368,358.968 613.615,349.431 622.072,342.098C630.53,334.765 641.603,331.116 655.294,331.116C671.487,331.116 685.064,335.695 696.063,344.887ZM714.522,332.975L745.923,332.975L745.923,389.023L746.378,389.023L794.997,332.975L833.301,332.975L777.855,396.321L835.576,465.382L797.614,465.382L746.378,403.551L745.923,403.551L745.923,465.382L714.522,465.382L714.522,332.975ZM900.189,332.975L924.764,332.975L984.153,465.382L952.525,465.382L940.844,439.355L884.868,439.355L873.415,465.382L841.937,465.382L900.189,332.975ZM912.59,376.353L895.41,415.394L930.111,415.394L912.59,376.353ZM997.152,332.975L1045.28,332.975C1059.92,332.975 1071.48,336.452 1079.98,343.441C1088.47,350.43 1092.72,359.897 1092.72,371.775C1092.72,378.557 1090.79,385.614 1086.88,392.947C1082.97,400.246 1075.77,405.995 1065.26,410.161L1106.15,465.382L1070.12,465.382L1032.19,414.154L1028.55,414.154L1028.55,465.382L997.151,465.382L997.152,332.975ZM1028.55,356.523L1028.55,391.019L1035.45,391.019C1052.1,391.019 1060.41,384.926 1060.41,372.773C1060.41,367.781 1058.25,363.822 1053.92,360.895C1049.6,357.969 1043.57,356.523 1035.91,356.523L1028.55,356.523Z" style="fill:rgb(230,230,230);"/>
        </g>
        <g transform="matrix(1.15552,0,0,3.20503,-91.0285,-922.126)">
            <path id="path4" d="M115.387,547.954C113.674,546.065 111.746,544.186 109.605,542.334C107.463,540.482 105.208,538.738 102.84,537.095C100.472,535.461 98.066,533.972 95.622,532.628C93.178,531.275 90.823,530.15 88.556,529.242L88.556,547.954L83.416,547.954L83.416,510.203L88.556,510.203L88.556,527.771C90.47,526.536 92.599,525.111 94.942,523.504C97.298,521.888 99.615,520.262 101.908,518.637C104.201,517.003 106.355,515.442 108.371,513.952C110.386,512.472 111.998,511.22 113.22,510.203L119.418,510.203C117.944,511.328 116.181,512.663 114.115,514.198C112.049,515.741 109.857,517.33 107.539,518.964C105.221,520.589 102.916,522.196 100.611,523.776C98.318,525.347 96.265,526.736 94.451,527.934C95.912,528.588 97.486,529.396 99.174,530.358C100.862,531.321 102.576,532.383 104.314,533.527C106.053,534.671 107.766,535.869 109.454,537.122C111.142,538.384 112.729,539.646 114.215,540.917C115.702,542.188 117.037,543.423 118.221,544.631C119.405,545.829 120.375,546.937 121.131,547.954L115.387,547.954ZM201.08,547.954C200.085,546.102 199.165,544.313 198.321,542.606C197.477,540.89 196.683,539.229 195.915,537.604L170.33,537.604C169.448,539.238 168.592,540.908 167.76,542.615C166.916,544.331 166.035,546.111 165.103,547.954L159.736,547.954C161.726,544.022 163.604,540.364 165.38,536.968C167.143,533.572 168.882,530.358 170.582,527.335C172.283,524.303 173.971,521.397 175.647,518.601C177.322,515.814 179.086,513.008 180.937,510.203L185.472,510.203C187.311,512.999 189.062,515.796 190.725,518.592C192.388,521.388 194.063,524.303 195.776,527.326C197.477,530.358 199.215,533.572 200.966,536.968C202.717,540.364 204.645,544.031 206.749,547.954L201.08,547.954ZM183.053,514.452C181.164,517.584 179.312,520.771 177.511,523.994C175.722,527.226 173.857,530.704 171.943,534.444L194.29,534.444C192.362,530.704 190.473,527.217 188.647,523.985C186.807,520.753 184.943,517.575 183.054,514.452ZM286.243,521.533C286.243,524.366 285.21,526.6 283.144,528.234C281.079,529.868 278.357,531.049 274.982,531.775C275.787,532.501 276.833,533.482 278.118,534.716C279.403,535.951 280.726,537.304 282.086,538.775C283.447,540.246 284.782,541.78 286.092,543.378C287.402,544.976 288.511,546.501 289.418,547.954L283.9,547.954C282.842,546.501 281.696,545.049 280.461,543.596C279.226,542.143 277.967,540.736 276.682,539.374C275.397,538.012 274.15,536.75 272.941,535.588C271.731,534.426 270.673,533.409 269.766,532.537C268.154,532.646 266.541,532.701 264.929,532.701L256.464,532.701L256.464,547.954L251.324,547.954L251.324,510.911C253.138,510.548 255.267,510.284 257.711,510.121C260.155,509.958 262.409,509.876 264.476,509.876C271.681,509.876 277.11,510.856 280.763,512.817C284.416,514.779 286.243,517.684 286.243,521.533ZM265.08,513.09C263.165,513.09 261.49,513.135 260.054,513.226C258.618,513.317 257.421,513.399 256.464,513.471L256.464,529.541L263.568,529.541C265.937,529.541 268.179,529.46 270.295,529.296C272.412,529.133 274.251,528.769 275.813,528.207C277.375,527.644 278.609,526.836 279.516,525.783C280.423,524.729 280.877,523.295 280.877,521.479C280.877,519.809 280.423,518.428 279.516,517.339C278.609,516.249 277.425,515.387 275.964,514.751C274.503,514.116 272.828,513.68 270.938,513.444C269.048,513.208 267.096,513.09 265.08,513.09ZM382.14,529.051C382.14,532.283 381.484,535.134 380.174,537.604C378.864,540.073 377.088,542.134 374.846,543.787C372.604,545.439 369.996,546.683 367.023,547.518C364.05,548.353 360.901,548.771 357.575,548.771C354.25,548.771 351.1,548.353 348.127,547.518C345.154,546.683 342.547,545.439 340.305,543.787C338.063,542.134 336.286,540.073 334.976,537.604C333.666,535.134 333.011,532.283 333.011,529.051C333.011,525.819 333.666,522.977 334.976,520.526C336.286,518.074 338.063,516.022 340.305,514.37C342.547,512.718 345.154,511.474 348.127,510.639C351.1,509.803 354.25,509.386 357.575,509.386C360.901,509.386 364.05,509.803 367.023,510.639C369.996,511.474 372.604,512.718 374.846,514.37C377.088,516.022 378.864,518.074 380.174,520.526C381.484,522.977 382.14,525.819 382.14,529.051ZM376.697,529.051C376.697,526.509 376.244,524.23 375.337,522.214C374.43,520.199 373.145,518.483 371.482,517.067C369.819,515.65 367.816,514.57 365.473,513.825C363.131,513.081 360.497,512.709 357.575,512.709C354.653,512.709 352.02,513.081 349.677,513.825C347.334,514.57 345.331,515.65 343.668,517.067C342.005,518.483 340.72,520.199 339.814,522.214C338.907,524.23 338.453,526.509 338.453,529.051C338.453,531.593 338.907,533.872 339.814,535.888C340.72,537.903 342.005,539.619 343.668,541.036C345.331,542.452 347.334,543.541 349.677,544.304C352.02,545.067 354.653,545.448 357.575,545.448C360.497,545.448 363.131,545.067 365.473,544.304C367.816,543.541 369.819,542.452 371.482,541.036C373.145,539.619 374.43,537.903 375.337,535.888C376.244,533.872 376.697,531.593 376.697,529.051ZM460.501,544.74L460.501,547.954L430.721,547.954L430.721,510.203L435.861,510.203L435.861,544.74L460.501,544.74ZM551.484,545.557C555.565,545.557 558.74,545.021 561.008,543.95C563.275,542.87 564.409,541.135 564.409,538.729C564.409,537.349 564.043,536.196 563.313,535.261C562.582,534.335 561.612,533.554 560.403,532.919C559.194,532.283 557.807,531.738 556.246,531.284C554.683,530.831 553.046,530.358 551.333,529.85C549.166,529.233 547.226,528.606 545.513,527.953C543.8,527.308 542.339,526.572 541.129,525.755C539.92,524.938 539.001,524.003 538.37,522.95C537.74,521.897 537.426,520.662 537.426,519.246C537.426,516.013 538.912,513.562 541.885,511.891C544.858,510.221 548.99,509.386 554.28,509.386C555.692,509.386 557.077,509.458 558.438,509.604C559.798,509.749 561.07,509.939 562.254,510.176C563.439,510.411 564.522,510.675 565.504,510.965C566.487,511.256 567.306,511.565 567.961,511.891L566.147,514.996C564.685,514.27 562.909,513.689 560.818,513.253C558.727,512.817 556.472,512.6 554.054,512.6C552.391,512.6 550.867,512.718 549.481,512.954C548.095,513.19 546.899,513.571 545.891,514.098C544.883,514.624 544.089,515.287 543.51,516.086C542.931,516.885 542.641,517.847 542.641,518.973C542.641,520.135 542.943,521.116 543.548,521.915C544.152,522.714 544.997,523.404 546.08,523.985C547.163,524.566 548.436,525.093 549.897,525.565C551.358,526.037 552.945,526.527 554.658,527.036C556.724,527.653 558.677,528.27 560.516,528.888C562.355,529.505 563.955,530.231 565.316,531.067C566.676,531.902 567.76,532.919 568.566,534.117C569.372,535.316 569.775,536.786 569.775,538.53C569.775,541.943 568.124,544.504 564.824,546.21C561.524,547.917 557.052,548.771 551.409,548.771C549.393,548.771 547.554,548.68 545.891,548.499C544.228,548.317 542.742,548.09 541.432,547.818C540.122,547.545 539.013,547.264 538.106,546.973C537.199,546.683 536.493,546.428 535.989,546.21L537.653,542.997C538.156,543.215 538.837,543.469 539.693,543.759C540.55,544.05 541.558,544.331 542.717,544.604C543.875,544.876 545.185,545.103 546.647,545.284C548.108,545.466 549.721,545.557 551.484,545.557ZM663.404,529.051C663.404,532.283 662.748,535.134 661.439,537.604C660.128,540.073 658.352,542.134 656.11,543.787C653.868,545.439 651.26,546.683 648.287,547.518C645.314,548.353 642.165,548.771 638.84,548.771C635.514,548.771 632.365,548.353 629.392,547.518C626.419,546.683 623.811,545.439 621.569,543.787C619.327,542.134 617.55,540.073 616.24,537.604C614.93,535.134 614.275,532.283 614.275,529.051C614.275,525.819 614.93,522.977 616.24,520.526C617.55,518.074 619.327,516.022 621.569,514.37C623.811,512.718 626.419,511.474 629.392,510.639C632.365,509.803 635.514,509.386 638.84,509.386C642.165,509.386 645.314,509.803 648.287,510.639C651.26,511.474 653.868,512.718 656.11,514.37C658.352,516.022 660.128,518.074 661.439,520.526C662.748,522.977 663.404,525.819 663.404,529.051ZM657.962,529.051C657.962,526.509 657.508,524.23 656.601,522.214C655.694,520.199 654.409,518.483 652.747,517.067C651.084,515.65 649.081,514.57 646.738,513.825C644.395,513.081 641.762,512.709 638.84,512.709C635.917,512.709 633.284,513.081 630.941,513.825C628.598,514.57 626.595,515.65 624.932,517.067C623.269,518.483 621.984,520.199 621.078,522.214C620.171,524.23 619.717,526.509 619.717,529.051C619.717,531.593 620.171,533.872 621.078,535.888C621.984,537.903 623.269,539.619 624.932,541.036C626.595,542.452 628.598,543.541 630.941,544.304C633.284,545.067 635.917,545.448 638.84,545.448C641.762,545.448 644.395,545.067 646.738,544.304C649.081,543.541 651.084,542.452 652.747,541.036C654.409,539.619 655.694,537.903 656.601,535.888C657.508,533.872 657.962,531.593 657.962,529.051ZM724.532,548.281C723.675,548.281 722.68,548.253 721.546,548.199C720.412,548.145 719.254,548.072 718.07,547.981C716.885,547.89 715.764,547.781 714.706,547.654C713.648,547.527 712.741,547.391 711.985,547.246L711.985,510.911C712.892,510.729 713.9,510.575 715.008,510.448C716.117,510.321 717.263,510.212 718.447,510.121C719.631,510.03 720.79,509.967 721.924,509.93C723.058,509.894 724.104,509.876 725.061,509.876C727.883,509.876 730.566,510.039 733.11,510.366C735.655,510.693 737.885,511.238 739.799,512C741.714,512.754 743.238,513.762 744.372,515.015C745.506,516.268 746.073,517.82 746.073,519.663C746.073,521.697 745.355,523.431 743.919,524.857C742.482,526.291 740.555,527.281 738.137,527.825C739.648,528.08 741.034,528.443 742.294,528.915C743.553,529.387 744.662,529.995 745.62,530.74C746.577,531.493 747.32,532.401 747.849,533.472C748.378,534.544 748.643,535.824 748.643,537.313C748.643,540.881 746.677,543.596 742.747,545.475C738.817,547.345 732.745,548.281 724.532,548.281ZM717.125,529.814L717.125,544.74C717.881,544.812 719.014,544.894 720.526,544.985C722.038,545.076 723.575,545.121 725.136,545.121C727.455,545.121 729.709,545.012 731.901,544.794C734.093,544.576 736.02,544.177 737.683,543.587C739.346,543.006 740.681,542.207 741.689,541.181C742.697,540.164 743.201,538.857 743.201,537.25C743.201,535.788 742.848,534.58 742.143,533.609C741.437,532.646 740.43,531.884 739.119,531.321C737.809,530.749 736.209,530.358 734.32,530.141C732.43,529.923 730.326,529.814 728.009,529.814L717.125,529.814ZM717.125,526.654L727.102,526.654C728.966,526.654 730.729,526.554 732.393,526.355C734.055,526.155 735.504,525.792 736.738,525.274C737.973,524.747 738.943,524.039 739.648,523.159C740.354,522.269 740.706,521.134 740.706,519.763C740.706,518.537 740.328,517.493 739.573,516.64C738.817,515.796 737.746,515.096 736.36,514.552C734.975,514.016 733.325,513.626 731.41,513.39C729.495,513.153 727.379,513.035 725.061,513.035C723.197,513.035 721.622,513.072 720.337,513.144C719.052,513.217 717.981,513.308 717.125,513.417L717.125,526.654ZM796.695,510.203L801.835,510.203L801.835,547.954L796.695,547.954L796.695,510.203ZM888.207,547.954C887.238,546.692 886.016,545.203 884.554,543.487C883.08,541.771 881.456,539.946 879.654,538.021C877.865,536.087 875.988,534.099 874.036,532.038C872.083,529.977 870.144,527.98 868.204,526.037C866.276,524.085 864.374,522.26 862.522,520.562C860.67,518.864 859.033,517.393 857.597,516.159L857.597,547.954L852.533,547.954L852.533,510.203L856.614,510.203C859.184,512.273 861.943,514.661 864.878,517.375C867.825,520.081 870.698,522.841 873.519,525.655C876.354,528.47 878.987,531.221 881.431,533.908C883.874,536.596 885.89,538.929 887.452,540.926L887.452,510.203L892.516,510.203L892.516,547.954L888.207,547.954ZM882.841,500.125L869.917,507.697L867.422,505.627L879.364,497.347L882.841,500.125ZM954.476,545.557C958.557,545.557 961.732,545.021 963.999,543.95C966.266,542.87 967.4,541.135 967.4,538.729C967.4,537.349 967.035,536.196 966.304,535.261C965.574,534.335 964.603,533.554 963.394,532.919C962.185,532.283 960.799,531.738 959.237,531.284C957.675,530.831 956.037,530.358 954.324,529.85C952.157,529.233 950.218,528.606 948.505,527.953C946.791,527.308 945.33,526.572 944.121,525.755C942.911,524.938 941.992,524.003 941.362,522.95C940.732,521.897 940.417,520.662 940.417,519.246C940.417,516.013 941.904,513.562 944.877,511.891C947.849,510.221 951.981,509.386 957.272,509.386C958.683,509.386 960.069,509.458 961.429,509.604C962.789,509.749 964.062,509.939 965.246,510.176C966.43,510.411 967.513,510.675 968.496,510.965C969.479,511.256 970.297,511.565 970.952,511.891L969.138,514.996C967.677,514.27 965.901,513.689 963.81,513.253C961.719,512.817 959.464,512.6 957.045,512.6C955.383,512.6 953.858,512.718 952.472,512.954C951.087,513.19 949.89,513.571 948.882,514.098C947.875,514.624 947.081,515.287 946.502,516.086C945.922,516.885 945.632,517.847 945.632,518.973C945.632,520.135 945.935,521.116 946.539,521.915C947.144,522.714 947.988,523.404 949.071,523.985C950.155,524.566 951.427,525.093 952.888,525.565C954.35,526.037 955.937,526.527 957.65,527.036C959.716,527.653 961.668,528.27 963.508,528.888C965.347,529.505 966.947,530.231 968.307,531.067C969.668,531.902 970.751,532.919 971.557,534.117C972.363,535.316 972.766,536.786 972.766,538.53C972.766,541.943 971.116,544.504 967.816,546.21C964.515,547.917 960.044,548.771 954.4,548.771C952.384,548.771 950.545,548.68 948.882,548.499C947.22,548.317 945.733,548.09 944.423,547.818C943.113,547.545 942.004,547.264 941.098,546.973C940.191,546.683 939.485,546.428 938.981,546.21L940.644,542.997C941.148,543.215 941.828,543.469 942.685,543.759C943.542,544.05 944.549,544.331 945.708,544.604C946.867,544.876 948.177,545.103 949.638,545.284C951.1,545.466 952.712,545.557 954.476,545.557ZM1051.35,547.954C1049.64,546.065 1047.71,544.186 1045.57,542.334C1043.43,540.482 1041.18,538.738 1038.81,537.095C1036.44,535.461 1034.03,533.972 1031.59,532.628C1029.14,531.275 1026.79,530.15 1024.52,529.242L1024.52,547.954L1019.38,547.954L1019.38,510.203L1024.52,510.203L1024.52,527.771C1026.44,526.536 1028.57,525.111 1030.91,523.504C1033.27,521.888 1035.58,520.262 1037.88,518.637C1040.17,517.003 1042.32,515.442 1044.34,513.952C1046.35,512.472 1047.97,511.22 1049.19,510.203L1055.38,510.203C1053.91,511.328 1052.15,512.663 1050.08,514.198C1048.02,515.741 1045.82,517.33 1043.51,518.964C1041.19,520.589 1038.88,522.196 1036.58,523.776C1034.29,525.347 1032.23,526.736 1030.42,527.934C1031.88,528.588 1033.45,529.396 1035.14,530.358C1036.83,531.321 1038.54,532.383 1040.28,533.527C1042.02,534.671 1043.73,535.869 1045.42,537.122C1047.11,538.384 1048.7,539.646 1050.18,540.917C1051.67,542.188 1053,543.423 1054.19,544.631C1055.37,545.829 1056.34,546.937 1057.1,547.954L1051.35,547.954ZM1101.75,510.203L1106.89,510.203L1106.89,547.954L1101.75,547.954L1101.75,510.203Z" style="fill:rgb(230,230,230);"/>
        </g>
        <g transform="matrix(1.15552,0,0,3.20503,0,0)">
            <path d="M85.478,190.431L143.062,90.691L192.301,5.407L322.304,5.407L322.304,190.431L85.478,190.431ZM182.808,45.739L182.808,176.443L215.484,176.443L215.484,127.429L264.499,127.429L269.453,122.475L313.757,45.739L182.808,45.739ZM264.499,78.415L248.161,94.753L215.484,94.753L215.484,78.415L264.499,78.415Z" style="fill:rgb(240,124,0);"/>
        </g>
        <g transform="matrix(1.15552,0,0,3.20503,-91.0285,-922.126)">
            <path d="M246.149,293.119L188.564,392.858L139.325,478.142L128.533,478.142L81.095,395.097L81.095,293.119L246.149,293.119Z" style="fill:rgb(230,230,230);"/>
        </g>
    </g>
</svg>
